<?xml version="1.0" encoding="utf-8"?>
<svg version="1.1" id="Layer_1" xmlns="http://www.w3.org/2000/svg" xmlns:xlink="http://www.w3.org/1999/xlink" x="0px" y="0px"
	 viewBox="0 0 256 297.7" style="enable-background:new 0 0 256 297.7;" xml:space="preserve">
<style type="text/css">
	.st0{fill:#01EC64;}
</style>
<g>
	<path class="st0" d="M149.6,51.7c-10.4-12.4-19.4-25-21.3-27.6c-0.2-0.2-0.5-0.2-0.7,0c-1.8,2.6-10.8,15.2-21.3,27.6
		c-89.7,114.4,14.1,191.6,14.1,191.6l0.9,0.6c0.8,11.9,2.7,29.1,2.7,29.1h3.9h3.9c0,0,1.9-17,2.7-29.1l0.9-0.7
		C135.5,243.3,239.3,166.1,149.6,51.7z M128,241.6c0,0-4.6-4-5.9-6v-0.2l5.6-124.5c0-0.4,0.6-0.4,0.6,0l5.6,124.5v0.2
		C132.6,237.6,128,241.6,128,241.6z"/>
</g>
</svg>